<?xml version="1.0" encoding="iso-8859-1"?>
<!-- Generator: Adobe Illustrator 19.0.0, SVG Export Plug-In . SVG Version: 6.00 Build 0)  -->
<svg version="1.1" id="Capa_1" xmlns="http://www.w3.org/2000/svg" xmlns:xlink="http://www.w3.org/1999/xlink" x="0px" y="0px"
	 viewBox="0 0 468.292 468.292" style="enable-background:new 0 0 468.292 468.292;" xml:space="preserve">
<path style="fill:#D15241;" d="M317.562,167.475c-13.799,9.086-27.826,24.357-39.55,49.516c-1.773,3.804-3.141,7.778-4.396,11.783
	c-9.083,28.982-62.875,167.712-263.539,181.218c-4.737,0.319-8.755,3.648-9.807,8.278h0c-1.301,5.725,2.247,11.451,7.97,12.759
	c44.953,10.272,217.647,36.35,312.818-61.572c31.68-32.596,127.575-113.786,95.292-176.1
	C397.638,157.244,351.531,145.108,317.562,167.475z"/>
<path style="fill:#31978C;" d="M414.414,173.658c-1.259,0-2.515-0.497-3.449-1.482c-1.809-1.904-1.73-4.914,0.174-6.725
	c36.636-34.788,52.272-64.713,46.471-88.952c-7.037-29.4-44.181-40.784-44.555-40.895c-2.517-0.748-3.95-3.395-3.2-5.913
	c0.748-2.522,3.407-3.948,5.917-3.2c1.744,0.516,42.788,13.121,51.088,47.792c6.651,27.779-9.895,60.774-49.172,98.07
	C416.769,173.226,415.592,173.658,414.414,173.658z"/>
<path style="fill:#44C4A1;" d="M399.773,156.797l-40.025-0.331c-3.109-0.026-4.118,4.167-1.338,5.559l23.136,4.386l5.142,20.775
	l24.477,5.965l7.246,27.013c1.42,2.334,4.978,1.632,5.405-1.066l4.528-28.562c1.692-10.675-2.656-21.411-11.3-27.899v0
	C412.06,158.895,406.007,156.848,399.773,156.797z"/>
<path style="fill:#E56353;" d="M118.307,423.417c-3.101,0-5.79-2.305-6.186-5.463c-0.43-3.421,1.994-6.543,5.415-6.976
	c104.296-13.134,125.506-44.561,125.707-44.872c1.832-2.872,5.659-3.787,8.564-1.994c2.902,1.787,3.86,5.53,2.119,8.457
	c-0.887,1.494-23.006,36.72-134.829,50.799C118.831,423.399,118.569,423.417,118.307,423.417z"/>
<g>
</g>
<g>
</g>
<g>
</g>
<g>
</g>
<g>
</g>
<g>
</g>
<g>
</g>
<g>
</g>
<g>
</g>
<g>
</g>
<g>
</g>
<g>
</g>
<g>
</g>
<g>
</g>
<g>
</g>
</svg>
